HIERARCHY
ROOT RootJoint
{
    OFFSET   0.000000   0.000000   0.000000
    CHANNELS 6 Xposition Yposition Zposition Xrotation Yrotation Zrotation
    JOINT pelvis_lowerback
    {
        OFFSET   0.000000   0.093605   0.000000
        CHANNELS 3 Xrotation Yrotation Zrotation
        JOINT lowerback_torso
        {
            OFFSET   0.000000   0.100000   0.000000
            CHANNELS 3 Xrotation Yrotation Zrotation
            JOINT torso_head
            {
                OFFSET   0.000000   0.282350   0.000000
                CHANNELS 3 Xrotation Yrotation Zrotation
                End Site
                {
                    OFFSET   0.000000   0.192650   0.000000
                }
            }
            JOINT rTorso_Clavicle
            {
                OFFSET  -0.001000   0.157500   0.000000
                CHANNELS 3 Xrotation Yrotation Zrotation
                JOINT rShoulder
                {
                    OFFSET  -0.117647   0.000000   0.000000
                    CHANNELS 3 Xrotation Yrotation Zrotation
                    JOINT rElbow
                    {
                        OFFSET  -0.245000   0.000000   0.000000
                        CHANNELS 3 Xrotation Yrotation Zrotation
                        JOINT rWrist
                        {
                            OFFSET  -0.240000   0.000000   0.000000
                            CHANNELS 3 Xrotation Yrotation Zrotation
                            End Site
                            {
                                OFFSET  -0.116353  -0.002500   0.000000
                            }
                        }
                    }
                }
            }
            JOINT lTorso_Clavicle
            {
                OFFSET   0.001000   0.157500   0.000000
                CHANNELS 3 Xrotation Yrotation Zrotation
                JOINT lShoulder
                {
                    OFFSET   0.117647   0.000000   0.000000
                    CHANNELS 3 Xrotation Yrotation Zrotation
                    JOINT lElbow
                    {
                        OFFSET   0.245000   0.000000   0.000000
                        CHANNELS 3 Xrotation Yrotation Zrotation
                        JOINT lWrist
                        {
                            OFFSET   0.240000   0.000000   0.000000
                            CHANNELS 3 Xrotation Yrotation Zrotation
                            End Site
                            {
                                OFFSET   0.116353  -0.002500   0.000000
                            }
                        }
                    }
                }
            }
        }
    }
    JOINT rHip
    {
        OFFSET  -0.100000  -0.051395   0.000000
        CHANNELS 3 Xrotation Yrotation Zrotation
        JOINT rKnee
        {
            OFFSET   0.000000  -0.410000   0.000000
            CHANNELS 3 Xrotation Yrotation Zrotation
            JOINT rAnkle
            {
                OFFSET   0.000000  -0.390000   0.000000
                CHANNELS 3 Xrotation Yrotation Zrotation
                JOINT rToeJoint
                {
                    OFFSET   0.000000  -0.050000   0.130000
                    CHANNELS 3 Xrotation Yrotation Zrotation
                    End Site
                    {
                        OFFSET  -0.010000   0.002000   0.060000
                    }
                }
            }
        }
    }
    JOINT lHip
    {
        OFFSET   0.100000  -0.051395   0.000000
        CHANNELS 3 Xrotation Yrotation Zrotation
        JOINT lKnee
        {
            OFFSET   0.000000  -0.410000   0.000000
            CHANNELS 3 Xrotation Yrotation Zrotation
            JOINT lAnkle
            {
                OFFSET   0.000000  -0.390000   0.000000
                CHANNELS 3 Xrotation Yrotation Zrotation
                JOINT lToeJoint
                {
                    OFFSET   0.000000  -0.050000   0.130000
                    CHANNELS 3 Xrotation Yrotation Zrotation
                    End Site
                    {
                        OFFSET   0.010000   0.002000   0.060000
                    }
                }
            }
        }
    }
}
MOTION
Frames: 10
Frame Time:   0.008333
 -2.376719   0.925631   3.975860   0.000000   0.000000   0.000000   0.000000   0.000000   0.000000   0.000000   0.000000   0.000000   0.000000   0.000000   0.000000   0.000000   0.000000   0.000000   0.000000   0.000000   0.000000   0.000000   0.000000   0.000000   0.000000   0.000000   0.000000   0.000000   0.000000   0.000000   0.000000   0.000000   0.000000   0.000000   0.000000   0.000000   0.000000   0.000000   0.000000   0.000000   0.000000   0.000000   0.000000   0.000000   0.000000   0.000000   0.000000   0.000000   0.000000   0.000000   0.000000   0.000000   0.000000   0.000000   0.000000   0.000000   0.000000   0.000000   0.000000   0.000000   0.000000   0.000000   0.000000
 -2.376255   0.925838   3.976041  -0.249870   0.183950   0.007539   0.248197  -0.130253   0.060707   0.125917  -0.127503   0.048437  -0.116404   0.162439   0.039943   0.003365  -0.477640  -0.326398   0.270555   0.179735   2.411772   0.019560   1.015837  -0.003656   0.144490  -0.174579  -2.314361  -0.025357   0.399315   0.194948   0.567178  -0.052810  -2.449325   0.023392  -1.247859   0.007448   0.225517   0.359398   2.150980   0.003356  -0.231861  -0.078916   0.606738   0.000376  -0.000256  -1.304307  -0.569864   0.102590  -0.265938   0.000079   0.001430  -0.184130   0.037745  -0.084575   2.026523   0.001436   0.003890  -2.160157   0.507429   0.346791   0.097359  -0.000230   0.000622
 -2.375572   0.926257   3.976591  -0.555048   0.329496   0.001675   0.454590  -0.267025   0.171901   0.281928  -0.273214   0.129980  -0.196719   0.319879   0.093432   0.006081  -0.973197  -0.061602   0.526639   0.353421   5.288132   0.044110   1.990224  -0.005563   0.315337  -0.063236  -3.974812  -0.040965   0.792671  -0.230267   1.114176  -0.141473  -5.365849   0.052202  -2.448759   0.012275   0.477476   0.388961   3.576584  -0.031586  -0.456741  -0.191168   1.233880   0.000934  -0.000658  -2.530333  -1.111275   0.184336  -0.595557  -0.000023   0.002917  -0.152589   0.091999  -0.186610   4.209769   0.003566   0.006736  -4.178728   0.977889   0.689990   0.111330  -0.000212   0.000580
 -2.374793   0.926540   3.977395  -0.846049   0.456513  -0.014285   0.601826  -0.423487   0.308706   0.406036  -0.437934   0.223391  -0.269043   0.466684   0.154554   0.011771  -1.465440   0.600431   0.769916   0.511964   8.472512   0.067552   2.894443  -0.005866   0.484156   0.075095  -4.947743  -0.047015   1.161764  -1.084878   1.618267  -0.251515  -8.432703   0.078671  -3.572179   0.014609   0.720638   0.341854   4.240008  -0.148798  -0.669032  -0.322911   1.807626   0.001457  -0.000991  -3.674862  -1.619246   0.248993  -0.905564  -0.000211   0.003919   0.039538   0.141780  -0.294033   6.338978   0.005699   0.008314  -6.060787   1.405459   1.025537   0.132086  -0.000208   0.000573
 -2.373993   0.926438   3.978362  -1.112234   0.579815  -0.038195   0.701927  -0.602586   0.457063   0.494052  -0.623632   0.322049  -0.340326   0.603184   0.216313   0.025828  -1.955729   1.508578   1.004744   0.654645  11.869654   0.087262   3.729294  -0.005132   0.641333   0.174869  -5.408854  -0.041219   1.507378  -2.192282   2.083072  -0.380572 -11.524600   0.099903  -4.620348   0.015407   0.949224   0.280999   4.365943  -0.346770  -0.868145  -0.465387   2.318787   0.001867  -0.001184  -4.744235  -2.095058   0.299145  -1.196419  -0.000412   0.004510   0.353093   0.186224  -0.400546   8.379913   0.007556   0.009124  -7.818132   1.793848   1.351765   0.151525  -0.000201   0.000552
 -2.373218   0.925772   3.979417  -1.355218   0.704167  -0.068143   0.767626  -0.802737   0.609915   0.554178  -0.829291   0.423143  -0.410867   0.730160   0.275348   0.052091  -2.444280   2.557347   1.234525   0.783006  15.411662   0.102336   4.498532  -0.003824   0.783833   0.221261  -5.520060  -0.023203   1.830430  -3.434366   2.511308  -0.526305 -14.563336   0.115108  -5.598011   0.015373   1.163436   0.220203   4.140909  -0.615320  -1.053705  -0.613333   2.770962   0.002146  -0.001252  -5.743607  -2.540204   0.337113  -1.468345  -0.000589   0.004780   0.761039   0.225872  -0.502928  10.326758   0.009046   0.009453  -9.459527   2.146798   1.667507   0.168352  -0.000190   0.000515
 -2.372450   0.924395   3.980504  -1.578278   0.827595  -0.105965   0.809310  -1.020806   0.772307   0.595148  -1.052208   0.543084  -0.479812   0.848430   0.325308   0.095234  -2.929060   3.733246   1.449297   0.895580  18.875209   0.112233   5.207276  -0.002198   0.912183   0.217283  -5.309420   0.006182   2.131137  -4.740935   2.905098  -0.686533 -17.506693   0.124507  -6.510283   0.014957   1.364806   0.160281   3.687748  -0.943832  -1.225657  -0.764802   3.169709   0.002322  -0.001240  -6.677584  -2.956242   0.364995  -1.721639  -0.000735   0.004819   1.242349   0.261032  -0.601232  12.179534   0.010230   0.009393 -10.992801   2.467693   1.972033   0.182226  -0.000174   0.000468
 -2.371759   0.923410   3.981370  -1.747783   0.818145  -0.384826   1.010070  -1.124850   1.138511   0.437593  -1.207429   0.757492  -0.642629   0.937072   0.330486   0.262101  -3.414667   4.447468   1.804727   0.997987  22.196417   0.121243   6.030368  -0.002353   0.884181   0.136030  -4.167755   0.087125   2.419904  -5.493434   2.834830  -0.926359 -20.630193   0.126946  -7.381745   0.011662   1.442985   0.147494   2.569898  -1.576639  -1.647734  -0.593493   4.846118   0.002690  -0.007506  -6.890439  -3.458411   0.536337  -1.825761  -0.000611   0.004705   2.135167   0.379163  -0.525070  12.495758   0.008822   0.007646 -12.320851   2.736066   2.443745   0.395860  -0.000610   0.001090
 -2.370979   0.922362   3.981916  -1.841001   0.891433  -0.644761   1.212189  -1.270691   1.463396   0.268640  -1.393611   0.977843  -0.811674   1.020133   0.342360   0.422887  -3.865142   4.973903   2.130948   1.113339  25.214786   0.123065   6.802344  -0.002417   0.863441   0.079248  -3.017377   0.151193   2.641726  -6.034460   2.744870  -1.177993 -23.455397   0.123958  -8.209037   0.009509   1.506551   0.081075   1.470527  -2.215521  -2.059963  -0.451342   6.384428   0.002756  -0.010708  -7.218397  -3.923626   0.668397  -1.816016  -0.000490   0.003695   2.944091   0.481042  -0.546032  12.597230   0.007335   0.006206 -13.577198   2.972823   2.889879   0.559924  -0.000686   0.001486
 -2.370137   0.921219   3.982190  -1.894582   0.992184  -0.901277   1.429140  -1.428690   1.769194   0.119137  -1.594144   1.193091  -0.971443   1.097940   0.355077   0.569814  -4.273865   5.366621   2.424254   1.243519  27.962805   0.120195   7.526236  -0.002450   0.846447   0.039734  -2.025124   0.198726   2.809867  -6.423327   2.638986  -1.433416 -26.010598   0.117661  -8.991500   0.008298   1.570817  -0.035498   0.549515  -2.842412  -2.443076  -0.320243   7.799518   0.002692  -0.012162  -7.550229  -4.357596   0.786753  -1.814755  -0.000394   0.002948   3.675118   0.579090  -0.632625  12.651646   0.006045   0.005020 -14.754784   3.183375   3.310551   0.700932  -0.000610   0.001722
